<?xml version="1.0" encoding="utf-8"?>
<!-- Generator: Adobe Illustrator 19.1.0, SVG Export Plug-In . SVG Version: 6.00 Build 0)  -->
<svg version="1.1" id="Layer_1" xmlns="http://www.w3.org/2000/svg" xmlns:xlink="http://www.w3.org/1999/xlink" x="0px" y="0px"
	 viewBox="0 0 1350 2600" style="enable-background:new 0 0 1350 2600;" xml:space="preserve">
<style type="text/css">
	.path {
	stroke-dasharray: 1000;
  stroke-dashoffset: 1000;
  animation: dash 5s linear infinite;
}

@keyframes dash {
  from {
    stroke-dashoffset: 1000;
  }
  to {
    stroke-dashoffset: 0;
  }
}
</style>
<script>
	var path = document.querySelector('.path');
	var length = path.getTotalLength();
</script>
<path class="path" stroke="#FFFFFF" stroke-width="4" stroke-miterlimit="10" d="M1172.791,2379.163l-156.982-67.562l-151.832-990.904L862,1321l1.891-0.651l-41.983-121.951l-19.646-64.831
	l123.153-123.153L924,1009l1.894-0.645l-124-364L800,645l1.358-1.467l-52.693-48.79l36.95-50.563L784,543h2V443h-2l1.002-1.731
	l-36.497-21.13l37.349-92.39L784,327l0.965-1.752l-109-60L675,267l-0.489-1.939l-127,32L548,299l-1.979,0.288l17.616,121.076
	l-63.629,71.304L501.5,493l-1.692,1.066l64.25,102L565.75,595l0.988,1.739l42.762-24.302v103.28l-90.334,41.465L520,719
	l-1.896-0.637l-47,140L473,859l-1.807,0.858L528,979.451V1025v57.808l-113.938,589.679l-239.956,707.87L176,2381l-0.903,1.784
	l158,80L334,2461l-0.058,1.999l486,14L820,2475l0.516,1.933l352-94L1172,2381L1172.791,2379.163z M819.765,2472.993l-485.26-13.979
	L178.451,2380l239.443-706.357L416,1673l1.964,0.379l114-590L530,1083h2v-58v-46h-2l1.807-0.858l-56.654-119.271l46.468-138.414
	l90.714-41.639L611.5,677h2V569h-2l-0.988-1.739l-44.088,25.056l-62.429-99.109l63.247-70.876L565.75,421l1.979-0.288
	l-17.49-120.213l124.487-31.367l106.755,58.764l-37.335,92.354L746,421l-1.002,1.731L782,444.153v98.193l-37.615,51.473L746,595
	l-1.358,1.467l53.627,49.655l123.436,362.344l-123.119,123.119L800,1133l-1.914,0.58l20,66L820,1199l-1.891,0.651l41.941,121.83
	l151.973,991.822L1014,2313l-0.791,1.837l152.7,65.719L819.765,2472.993z"/>
</svg>
